<svg width="81" height="80" viewBox="0 0 81 80" fill="none" xmlns="http://www.w3.org/2000/svg">
<path d="M10.1617 50C10.1617 48.2319 10.8664 46.5362 12.1208 45.286C13.3751 44.0357 15.0764 43.3333 16.8504 43.3333H63.6711C65.445 43.3333 67.1463 44.0357 68.4007 45.286C69.655 46.5362 70.3597 48.2319 70.3597 50V63.3333C70.3597 65.1015 69.655 66.7971 68.4007 68.0474C67.1463 69.2976 65.445 70 63.6711 70H16.8504C15.0764 70 13.3751 69.2976 12.1208 68.0474C10.8664 66.7971 10.1617 65.1015 10.1617 63.3333V50Z" stroke="white" stroke-width="5" stroke-linecap="round" stroke-linejoin="round"/>
<path d="M56.9824 56.6667V56.7" stroke="white" stroke-width="5" stroke-linecap="round" stroke-linejoin="round"/>
<path d="M43.6051 56.6667V56.7" stroke="white" stroke-width="5" stroke-linecap="round" stroke-linejoin="round"/>
<path d="M50.2937 43.3333V36.6667" stroke="white" stroke-width="5" stroke-linecap="round" stroke-linejoin="round"/>
<path d="M39.4247 29.1667C40.6632 27.4462 42.295 26.0444 44.1851 25.0774C46.0752 24.1105 48.1692 23.6061 50.2937 23.6061C52.4183 23.6061 54.5123 24.1105 56.4024 25.0774C58.2925 26.0444 59.9243 27.4462 61.1628 29.1667" stroke="white" stroke-width="5" stroke-linecap="round" stroke-linejoin="round"/>
<path d="M28.5556 21.6667C31.0326 18.2256 34.2963 15.4221 38.0765 13.4882C41.8567 11.5543 46.0447 10.5456 50.2937 10.5456C54.5428 10.5456 58.7308 11.5543 62.511 13.4882C66.2912 15.4221 69.5549 18.2256 72.0319 21.6667" stroke="white" stroke-width="5" stroke-linecap="round" stroke-linejoin="round"/>
</svg>
