<svg width="86" height="48" viewBox="0 0 86 48" fill="none" xmlns="http://www.w3.org/2000/svg">
<path d="M20.736 12.664V35H16.256V25.496H6.688V35H2.208V12.664H6.688V21.848H16.256V12.664H20.736ZM49.4975 12.664V35H45.0175V20.472L39.0335 35H35.6415L29.6255 20.472V35H25.1455V12.664H30.2335L37.3375 29.272L44.4415 12.664H49.4975ZM58.4068 12.664V35H53.9268V12.664H58.4068ZM76.625 12.664V16.28H67.313V22.008H74.449V25.56H67.313V35H62.833V12.664H76.625ZM81.7858 35.224C80.9751 35.224 80.3031 34.9787 79.7698 34.488C79.2578 33.976 79.0018 33.3467 79.0018 32.6C79.0018 31.8533 79.2578 31.2347 79.7698 30.744C80.3031 30.232 80.9751 29.976 81.7858 29.976C82.5751 29.976 83.2258 30.232 83.7378 30.744C84.2498 31.2347 84.5058 31.8533 84.5058 32.6C84.5058 33.3467 84.2498 33.976 83.7378 34.488C83.2258 34.9787 82.5751 35.224 81.7858 35.224Z" fill="#1A49A3"/>
</svg>
