<svg width="81" height="80" viewBox="0 0 81 80" fill="none" xmlns="http://www.w3.org/2000/svg">
<g clip-path="url(#clip0_52_51)">
<path d="M38.5028 70H26.7976C25.0236 70 23.3224 69.2976 22.068 68.0474C20.8136 66.7971 20.1089 65.1014 20.1089 63.3333V16.6667C20.1089 14.8986 20.8136 13.2029 22.068 11.9526C23.3224 10.7024 25.0236 10 26.7976 10H53.5523C55.3262 10 57.0275 10.7024 58.2819 11.9526C59.5362 13.2029 60.2409 14.8986 60.2409 16.6667V43.3333" stroke="white" stroke-width="5" stroke-linecap="round" stroke-linejoin="round"/>
<path d="M66.9296 70L73.6183 63.3334L66.9296 56.6667" stroke="white" stroke-width="5" stroke-linecap="round" stroke-linejoin="round"/>
<path d="M56.8966 56.6667L50.2079 63.3334L56.8966 70" stroke="white" stroke-width="5" stroke-linecap="round" stroke-linejoin="round"/>
<path d="M36.8306 13.3333H43.5192" stroke="white" stroke-width="5" stroke-linecap="round" stroke-linejoin="round"/>
<path d="M40.1749 56.6667V56.7" stroke="white" stroke-width="5" stroke-linecap="round" stroke-linejoin="round"/>
</g>
<defs>
<clipPath id="clip0_52_51">
<rect width="80.264" height="80" fill="white" transform="translate(0.0429077)"/>
</clipPath>
</defs>
</svg>
