<svg width="81" height="80" viewBox="0 0 81 80" fill="none" xmlns="http://www.w3.org/2000/svg">
<g clip-path="url(#clip0_52_58)">
<path d="M10.1188 13.3333C10.1188 12.4493 10.4712 11.6014 11.0984 10.9763C11.7255 10.3512 12.5762 10 13.4632 10H20.1518C21.0388 10 21.8894 10.3512 22.5166 10.9763C23.1438 11.6014 23.4962 12.4493 23.4962 13.3333V20C23.4962 20.8841 23.1438 21.7319 22.5166 22.357C21.8894 22.9821 21.0388 23.3333 20.1518 23.3333H13.4632C12.5762 23.3333 11.7255 22.9821 11.0984 22.357C10.4712 21.7319 10.1188 20.8841 10.1188 20V13.3333Z" stroke="white" stroke-width="5" stroke-linecap="round" stroke-linejoin="round"/>
<path d="M56.9395 60C56.9395 59.116 57.2918 58.2681 57.919 57.643C58.5462 57.0179 59.3969 56.6667 60.2838 56.6667H66.9725C67.8595 56.6667 68.7101 57.0179 69.3373 57.643C69.9645 58.2681 70.3168 59.116 70.3168 60V66.6667C70.3168 67.5507 69.9645 68.3986 69.3373 69.0237C68.7101 69.6488 67.8595 70 66.9725 70H60.2838C59.3969 70 58.5462 69.6488 57.919 69.0237C57.2918 68.3986 56.9395 67.5507 56.9395 66.6667V60Z" stroke="white" stroke-width="5" stroke-linecap="round" stroke-linejoin="round"/>
<path d="M23.4962 16.6667H46.9065" stroke="white" stroke-width="5" stroke-linecap="round" stroke-linejoin="round"/>
<path d="M33.5292 63.3333H56.9395" stroke="white" stroke-width="5" stroke-linecap="round" stroke-linejoin="round"/>
<path d="M26.8405 63.3333C26.8405 64.2174 27.1928 65.0652 27.82 65.6904C28.4472 66.3155 29.2978 66.6667 30.1848 66.6667C31.0718 66.6667 31.9224 66.3155 32.5496 65.6904C33.1768 65.0652 33.5292 64.2174 33.5292 63.3333C33.5292 62.4493 33.1768 61.6014 32.5496 60.9763C31.9224 60.3512 31.0718 60 30.1848 60C29.2978 60 28.4472 60.3512 27.82 60.9763C27.1928 61.6014 26.8405 62.4493 26.8405 63.3333Z" stroke="white" stroke-width="5" stroke-linecap="round" stroke-linejoin="round"/>
<path d="M46.9065 16.6667C46.9065 17.5507 47.2588 18.3986 47.886 19.0237C48.5132 19.6488 49.3639 20 50.2508 20C51.1378 20 51.9884 19.6488 52.6156 19.0237C53.2428 18.3986 53.5952 17.5507 53.5952 16.6667C53.5952 15.7826 53.2428 14.9348 52.6156 14.3097C51.9884 13.6845 51.1378 13.3333 50.2508 13.3333C49.3639 13.3333 48.5132 13.6845 47.886 14.3097C47.2588 14.9348 46.9065 15.7826 46.9065 16.6667Z" stroke="white" stroke-width="5" stroke-linecap="round" stroke-linejoin="round"/>
<path d="M23.4962 18.3333C25.6921 18.3333 27.8665 18.8938 29.8953 19.9826C31.924 21.0715 33.7674 22.6674 35.3202 24.6794C36.8729 26.6913 38.1046 29.0798 38.945 31.7085C39.7853 34.3373 40.2178 37.1547 40.2178 40C40.2178 45.7464 41.9796 51.2574 45.1155 55.3207C48.2514 59.3839 52.5046 61.6667 56.9395 61.6667" stroke="white" stroke-width="5" stroke-linecap="round" stroke-linejoin="round"/>
</g>
<defs>
<clipPath id="clip0_52_58">
<rect width="80.264" height="80" fill="white" transform="translate(0.0858154)"/>
</clipPath>
</defs>
</svg>
