<svg width="81" height="80" viewBox="0 0 81 80" fill="none" xmlns="http://www.w3.org/2000/svg">
<path d="M10.033 23.3333C10.033 21.5652 10.7377 19.8695 11.9921 18.6193C13.2465 17.369 14.9477 16.6667 16.7217 16.6667H63.5424C65.3163 16.6667 67.0176 17.369 68.272 18.6193C69.5263 19.8695 70.231 21.5652 70.231 23.3333V56.6667C70.231 58.4348 69.5263 60.1305 68.272 61.3807C67.0176 62.6309 65.3163 63.3333 63.5424 63.3333H16.7217C14.9477 63.3333 13.2465 62.6309 11.9921 61.3807C10.7377 60.1305 10.033 58.4348 10.033 56.6667V23.3333Z" stroke="white" stroke-width="5" stroke-linecap="round" stroke-linejoin="round"/>
<path d="M20.066 26.6667H20.0993" stroke="white" stroke-width="5" stroke-linecap="round" stroke-linejoin="round"/>
<path d="M30.099 26.6667H30.1323" stroke="white" stroke-width="5" stroke-linecap="round" stroke-linejoin="round"/>
</svg>
